<?xml version="1.0" standalone="no"?>
<!DOCTYPE svg PUBLIC "-//W3C//DTD SVG 20010904//EN"
 "http://www.w3.org/TR/2001/REC-SVG-20010904/DTD/svg10.dtd">
<svg version="1.0" xmlns="http://www.w3.org/2000/svg"
 width="1024.000000pt" height="1024.000000pt" viewBox="0 0 1024.000000 1024.000000"
 preserveAspectRatio="xMidYMid meet">
<metadata>
Created by potrace 1.14, written by Peter Selinger 2001-2017
</metadata>
<g transform="translate(0.000000,1024.000000) scale(0.100000,-0.100000)"
fill="#000000" stroke="none">
<path d="M5850 9480 c-415 -418 -1564 -1569 -2553 -2559 l-1798 -1801 1102
-1101 1101 -1102 354 354 354 354 -747 747 -748 748 1455 1458 c800 801 1950
1953 2555 2560 l1100 1102 -710 -1 -710 0 -755 -759z"/>
<path d="M6175 6970 l-350 -350 750 -751 750 -750 -1360 -1357 c-748 -747
-1900 -1898 -2559 -2560 l-1200 -1202 708 0 707 0 2560 2560 2560 2560 -1100
1100 c-605 605 -1104 1100 -1108 1100 -5 0 -166 -158 -358 -350z"/>
</g>
</svg>
